<?xml version="1.0" encoding="UTF-8" standalone="no"?>
<!-- Created with Inkscape (http://www.inkscape.org/) -->

<svg
   xmlns:dc="http://purl.org/dc/elements/1.1/"
   xmlns:cc="http://creativecommons.org/ns#"
   xmlns:rdf="http://www.w3.org/1999/02/22-rdf-syntax-ns#"
   xmlns:svg="http://www.w3.org/2000/svg"
   xmlns="http://www.w3.org/2000/svg"
   xmlns:sodipodi="http://sodipodi.sourceforge.net/DTD/sodipodi-0.dtd"
   xmlns:inkscape="http://www.inkscape.org/namespaces/inkscape"
   width="90.713997mm"
   height="39.310001mm"
   viewBox="0 0 90.713995 39.31"
   version="1.1"
   id="svg8"
   inkscape:version="0.92.3 (2405546, 2018-03-11)"
   sodipodi:docname="Login to github button.svg">
  <defs
     id="defs2" />
  <sodipodi:namedview
     id="base"
     pagecolor="#ffffff"
     bordercolor="#666666"
     borderopacity="1.0"
     inkscape:pageopacity="0.0"
     inkscape:pageshadow="2"
     inkscape:zoom="0.35"
     inkscape:cx="122.4326"
     inkscape:cy="795.03379"
     inkscape:document-units="mm"
     inkscape:current-layer="layer2"
     showgrid="false"
     inkscape:window-width="1842"
     inkscape:window-height="1051"
     inkscape:window-x="-9"
     inkscape:window-y="-9"
     inkscape:window-maximized="1"
     inkscape:snap-page="true"
     scale-x="1" />
  <metadata
     id="metadata5">
    <rdf:RDF>
      <cc:Work
         rdf:about="">
        <dc:format>image/svg+xml</dc:format>
        <dc:type
           rdf:resource="http://purl.org/dc/dcmitype/StillImage" />
        <dc:title></dc:title>
      </cc:Work>
    </rdf:RDF>
  </metadata>
  <g
     inkscape:label="Layer 1"
     inkscape:groupmode="layer"
     id="layer1"
     transform="translate(0,-257.69)">
    <g
       style="fill:none"
       id="g3737"
       transform="matrix(0.03307288,0,0,0.03307286,11.188097,99.004314)" />
  </g>
  <g
     inkscape:groupmode="layer"
     id="layer2"
     inkscape:label="Layer 2"
     transform="translate(0,-257.69)">
    <g
       id="g4600"
       transform="matrix(0.99999684,0,0,1.0000121,-59.460008,166.5737)">
      <rect
         style="fill:#c8b7b7;fill-opacity:1;stroke-width:0.25227031"
         y="91.115181"
         x="59.460178"
         height="39.309525"
         width="90.714287"
         id="rect3749" />
      <text
         id="text4587"
         y="106.5"
         x="104.32143"
         style="font-style:normal;font-weight:normal;font-size:10.58333302px;line-height:1.25;font-family:sans-serif;letter-spacing:0px;word-spacing:0px;fill:#000000;fill-opacity:1;stroke:none;stroke-width:0.26458332"
         xml:space="preserve"><tspan
           style="stroke-width:0.26458332"
           y="106.5"
           x="104.32143"
           id="tspan4585"
           sodipodi:role="line">Login to </tspan><tspan
           id="tspan4589"
           style="stroke-width:0.26458332"
           y="119.72916"
           x="104.32143"
           sodipodi:role="line">GitHub</tspan></text>
      <path
         inkscape:transform-center-y="-5.2916667"
         inkscape:transform-center-x="50.64881"
         style="clip-rule:evenodd;fill:#1b1f23;fill-rule:evenodd;stroke-width:2.11666369"
         inkscape:connector-curvature="0"
         d="m 81.159033,93.180456 c -9.355656,0 -16.933314,7.577654 -16.933314,16.933304 0,7.49299 4.847161,13.82181 11.578154,16.06547 0.846665,0.14817 1.164165,-0.35983 1.164165,-0.80433 0,-0.40216 -0.02117,-1.73566 -0.02117,-3.15383 -4.254495,0.78317 -5.35516,-1.03716 -5.693827,-1.98966 -0.1905,-0.48683 -1.015999,-1.98966 -1.735665,-2.39183 -0.592666,-0.3175 -1.439331,-1.10066 -0.02117,-1.12183 1.333498,-0.0212 2.285997,1.22766 2.603497,1.73566 1.523998,2.56117 3.958162,1.8415 4.931828,1.397 0.148166,-1.10066 0.592666,-1.8415 1.079499,-2.26483 -3.767663,-0.42333 -7.704659,-1.88383 -7.704659,-8.36082 0,-1.8415 0.656166,-3.3655 1.735665,-4.55083 -0.169333,-0.42333 -0.761999,-2.15899 0.169333,-4.48732 0,0 1.418165,-0.4445 4.656662,1.73566 1.354665,-0.381 2.793997,-0.5715 4.233329,-0.5715 1.439331,0 2.878663,0.1905 4.233328,0.5715 3.238497,-2.201327 4.656662,-1.73566 4.656662,-1.73566 0.931335,2.32833 0.338666,4.06399 0.169333,4.48732 1.079502,1.18533 1.735665,2.68817 1.735665,4.55083 0,6.49816 -3.958163,7.93749 -7.725825,8.36082 0.613832,0.52917 1.142999,1.54517 1.142999,3.13266 0,2.26483 -0.02117,4.08516 -0.02117,4.65666 0,0.4445 0.3175,0.97367 1.164165,0.80433 6.68866,-2.24366 11.535816,-8.59365 11.535816,-16.06547 0,-9.35565 -7.577653,-16.933304 -16.93331,-16.933304 z"
         id="path3726" />
    </g>
  </g>
</svg>
